<?xml version="1.0" encoding="UTF-8" standalone="no"?>
<!-- Created with Inkscape (http://www.inkscape.org/) -->
<svg
   xmlns:svg="http://www.w3.org/2000/svg"
   xmlns="http://www.w3.org/2000/svg"
   version="1.0"
   width="700"
   height="617.14288"
   id="svg5291">
  <defs
     id="defs5293" />
  <g
     transform="translate(194.2857,379.0664)"
     id="layer1">
    <path
       d="M 195.27212,79.676065 C 183.00317,75.340151 164.54086,63.368459 154.2446,53.072191 C 138.39944,37.227035 134.77734,29.297573 130.66322,1.4480914 C 126.6526,-25.700319 124.11754,-31.455199 116.16768,-31.455199 C 109.34004,-31.455199 104.76245,-25.514219 100.45407,-11.060489 C 90.813491,21.281944 78.748501,40.901651 59.445931,55.624079 C 42.796201,68.323862 38.796291,69.125374 3.4130014,66.854424 C -27.176509,64.891433 -39.458709,61.461044 -58.870899,49.459779 C -86.964609,32.090628 -106.18713,6.2556314 -106.18713,-14.132949 C -106.18713,-26.458489 -108.66916,-28.909429 -124.08042,-31.800379 C -137.37573,-34.294649 -142.77472,-38.350139 -145.09207,-47.584859 C -147.6618,-57.823509 -144.28648,-63.291329 -125.92461,-78.632429 C -113.66688,-88.873129 -68.714399,-131.47461 -26.029809,-173.30211 C 33.812841,-231.94352 53.654341,-248.54787 60.647681,-245.83741 C 65.635721,-243.90399 82.257401,-239.04087 97.585051,-235.03076 C 131.49787,-226.15805 143.4303,-216.14221 135.22042,-203.43988 C 130.86258,-196.69688 123.66121,-194.93426 104.71504,-195.97388 C 91.074551,-196.72237 74.632841,-198.51659 68.177411,-199.96156 C 58.576091,-202.11014 46.154701,-192.51749 -0.091318571,-147.23767 L -56.623399,-91.886949 L -18.946729,-96.114779 C 24.542431,-100.99472 54.145341,-97.693839 72.266551,-85.943429 C 88.503791,-75.414659 136.95856,-74.452539 152.87407,-84.342949 C 159.35041,-88.367849 181.14725,-92.693049 201.3115,-93.954979 C 237.06597,-96.192279 245.71689,-94.257329 297.88298,-72.351369 C 304.69583,-69.490299 306.80566,-71.073649 306.80566,-79.046449 C 306.80566,-84.789599 308.75948,-90.695899 311.1477,-92.171969 C 313.53592,-93.648039 319.55287,-105.82928 324.51847,-119.24084 C 329.48407,-132.65291 341.29668,-160.46517 350.76849,-181.04598 C 360.23979,-201.6273 367.98978,-220.20024 367.98978,-222.31976 C 367.98978,-224.43979 372.64997,-230.39148 378.3457,-235.54624 C 391.41004,-247.36905 395.03928,-243.8785 422.12498,-193.4429 C 438.08486,-163.72374 440.82488,-154.83266 436.26616,-147.55481 C 428.12714,-134.56135 407.33372,-136.0109 401.19644,-149.99963 C 394.02974,-166.33477 390.27916,-164.39829 381.44264,-139.80227 C 335.40873,-11.672329 335.84518,-12.609979 323.3264,-14.817199 C 318.17673,-15.724759 313.33758,-8.1154986 308.36892,8.7019814 C 293.45427,59.182445 264.77523,88.889374 231.85308,87.961415 C 224.00214,87.739622 207.54055,84.01147 195.27212,79.676065 z M 267.65752,52.821846 C 278.81801,39.558659 292.33256,-2.6104486 291.07115,-20.234029 C 290.59442,-26.894429 282.40034,-3.3166186 278.25053,16.655405 C 270.51023,53.911943 247.09812,68.304997 211.55831,57.656921 C 173.63384,46.294521 158.94405,25.307859 158.94405,-17.509299 C 158.94405,-52.029379 164.3721,-59.527999 189.28117,-59.418379 C 214.40439,-59.307739 264.59015,-46.929679 275.11841,-38.246629 C 281.19705,-33.233619 290.07691,-32.045109 304.25633,-34.346149 C 322.74311,-37.346719 323.15916,-37.724019 308.70441,-38.379709 C 299.93367,-38.777409 290.00604,-42.418879 286.64244,-46.471819 C 271.45399,-64.773009 197.23664,-78.677299 163.68021,-69.508149 C 126.00507,-59.213919 79.292521,-59.614679 58.110071,-70.414389 C 45.152811,-77.020229 28.535711,-79.892829 3.2814614,-79.892829 C -30.932189,-79.892829 -81.656879,-69.000319 -93.910019,-59.021699 C -96.972289,-56.527939 -100.81414,-55.824319 -102.44827,-57.458449 C -106.61643,-61.626609 -126.58183,-54.698529 -126.58183,-49.084379 C -126.58183,-46.539119 -119.85617,-45.801849 -111.63557,-47.446179 C -97.633589,-50.246369 -96.330369,-49.105289 -91.023659,-29.396859 C -83.814129,-2.6226886 -67.021129,25.951822 -54.584949,32.607634 C -47.436099,36.433681 -49.052889,31.92951 -60.823689,15.230325 C -70.674849,1.2543414 -77.687559,-15.960319 -79.278349,-30.071929 C -81.833809,-52.748289 -81.765999,-52.863009 -60.770669,-61.263589 C -32.311379,-72.651179 23.515041,-72.391649 46.718101,-60.764429 C 71.029101,-48.582669 76.430641,-31.083499 65.065691,-1.3250786 C 55.048321,24.904554 34.072871,42.52252 6.4293814,47.925078 L -11.861609,51.50027 L 5.9837614,52.078459 C 43.912301,53.30826 77.756801,22.970626 84.332571,-18.151219 C 87.805781,-39.870559 102.41808,-54.458389 120.56376,-54.321229 C 138.49122,-54.185609 142.93624,-47.432409 148.65339,-11.643269 C 151.71565,7.5267314 158.15171,28.638824 162.95569,35.272712 C 175.41379,52.476156 208.91872,67.960327 233.69625,67.964915 C 250.96649,67.968485 257.28273,65.151976 267.65752,52.821846 z M 257.94556,36.102267 C 262.04897,29.792655 266.97939,12.637648 268.90159,-2.0200286 C 272.30445,-27.963109 272.00771,-28.820709 257.73447,-34.315039 C 249.67041,-37.419629 226.43778,-41.245169 206.1068,-42.816579 L 169.1414,-45.673879 L 169.1414,-19.265279 C 169.1414,22.80135 191.72752,46.943073 231.48241,47.370342 C 245.71689,47.523302 252.3569,44.696086 257.94556,36.102267 z M 26.545191,29.642754 C 53.999521,15.445489 68.622011,-37.717389 48.047841,-48.534229 C 23.186691,-61.604689 -52.401699,-59.237369 -66.698389,-44.940689 C -73.851829,-37.787749 -64.340759,-4.8268486 -49.783529,13.679817 C -32.854899,35.200821 1.7865214,42.44553 26.545191,29.642754 z M 365.34357,-142.22873 C 389.83149,-199.11824 395.94073,-204.61002 404.17356,-177.13172 C 407.59426,-165.71426 413.4715,-156.37297 417.23382,-156.37297 C 420.99664,-156.37297 424.07522,-158.5858 424.07522,-161.29065 C 424.07522,-166.38779 400.08799,-211.95619 393.68966,-219.01531 C 391.692,-221.21896 376.77174,-193.68611 360.53399,-157.83119 C 344.29623,-121.97577 326.67878,-84.237919 321.3838,-73.968669 C 314.09371,-59.830349 313.32177,-54.740339 318.20376,-53.000669 C 324.83917,-50.636419 330.65982,-61.654149 365.34357,-142.22873 z M -53.515249,-109.7777 C 14.601031,-184.47433 52.310331,-218.54521 63.832831,-215.80366 C 69.873231,-214.36634 86.287911,-211.78845 100.30927,-210.07478 L 125.80265,-206.95898 L 95.407401,-220.43325 C 58.355831,-236.85762 60.213791,-237.71369 -5.4556386,-173.98788 C -31.413509,-148.79889 -65.732699,-116.44677 -81.720619,-102.09399 C -97.709049,-87.741219 -109.34729,-74.555019 -107.58314,-72.790879 C -100.41644,-65.623979 -82.771449,-77.694789 -53.515249,-109.7777 z "
       style="fill:black"
       id="path5283" />
  </g>
</svg>
